<mxfile host="app.diagrams.net" modified="2023-04-22T16:27:46.146Z" agent="Mozilla/5.0 (Windows NT 10.0; Win64; x64) AppleWebKit/537.36 (KHTML, like Gecko) Chrome/112.0.0.0 Safari/537.36" etag="FJnJwlekxAoAk_CcXkPe" version="21.2.1" type="github">
  <diagram name="Страница 1" id="gNxcYBB8QSKJWtHRCbBn">
    <mxGraphModel dx="1574" dy="885" grid="1" gridSize="10" guides="1" tooltips="1" connect="1" arrows="1" fold="1" page="1" pageScale="1" pageWidth="827" pageHeight="1169" math="0" shadow="0">
      <root>
        <mxCell id="0" />
        <mxCell id="1" parent="0" />
        <mxCell id="yeMwg9czrKkMgBXMqAlp-5" style="rounded=0;orthogonalLoop=1;jettySize=auto;html=1;exitX=1;exitY=0.5;exitDx=0;exitDy=0;entryX=0;entryY=0.5;entryDx=0;entryDy=0;fillColor=#f8cecc;strokeColor=#b85450;endArrow=none;endFill=0;" parent="1" source="yeMwg9czrKkMgBXMqAlp-1" target="yeMwg9czrKkMgBXMqAlp-3" edge="1">
          <mxGeometry relative="1" as="geometry" />
        </mxCell>
        <mxCell id="yeMwg9czrKkMgBXMqAlp-1" value="SW1&lt;br&gt;VLAN 1: &lt;b&gt;&lt;font color=&quot;#ff0000&quot;&gt;NET1_SW1&lt;/font&gt;&lt;/b&gt;" style="shape=parallelogram;perimeter=parallelogramPerimeter;whiteSpace=wrap;html=1;fixedSize=1;fillColor=#f8cecc;strokeColor=#b85450;" parent="1" vertex="1">
          <mxGeometry x="200" y="90" width="150" height="60" as="geometry" />
        </mxCell>
        <mxCell id="yeMwg9czrKkMgBXMqAlp-2" value="SW2&lt;br style=&quot;border-color: var(--border-color);&quot;&gt;VLAN 1: &lt;b&gt;&lt;font color=&quot;#ff0000&quot;&gt;NET2_SW2&lt;/font&gt;&lt;/b&gt;" style="shape=parallelogram;perimeter=parallelogramPerimeter;whiteSpace=wrap;html=1;fixedSize=1;fillColor=#d5e8d4;strokeColor=#82b366;" parent="1" vertex="1">
          <mxGeometry x="200" y="291" width="150" height="60" as="geometry" />
        </mxCell>
        <mxCell id="yeMwg9czrKkMgBXMqAlp-6" style="rounded=0;orthogonalLoop=1;jettySize=auto;html=1;exitX=0.5;exitY=1;exitDx=0;exitDy=0;endArrow=none;endFill=0;" parent="1" source="yeMwg9czrKkMgBXMqAlp-3" target="yeMwg9czrKkMgBXMqAlp-4" edge="1">
          <mxGeometry relative="1" as="geometry" />
        </mxCell>
        <mxCell id="yeMwg9czrKkMgBXMqAlp-3" value="R1" style="ellipse;whiteSpace=wrap;html=1;aspect=fixed;fillColor=#f8cecc;strokeColor=#b85450;" parent="1" vertex="1">
          <mxGeometry x="480" y="80" width="80" height="80" as="geometry" />
        </mxCell>
        <mxCell id="yeMwg9czrKkMgBXMqAlp-7" style="edgeStyle=none;rounded=0;orthogonalLoop=1;jettySize=auto;html=1;exitX=0;exitY=0.5;exitDx=0;exitDy=0;entryX=1;entryY=0.5;entryDx=0;entryDy=0;fillColor=#d5e8d4;strokeColor=#82b366;endArrow=none;endFill=0;" parent="1" source="yeMwg9czrKkMgBXMqAlp-4" target="yeMwg9czrKkMgBXMqAlp-2" edge="1">
          <mxGeometry relative="1" as="geometry" />
        </mxCell>
        <mxCell id="yeMwg9czrKkMgBXMqAlp-4" value="R2" style="ellipse;whiteSpace=wrap;html=1;aspect=fixed;fillColor=#d5e8d4;strokeColor=#82b366;" parent="1" vertex="1">
          <mxGeometry x="480" y="281" width="80" height="80" as="geometry" />
        </mxCell>
        <mxCell id="yeMwg9czrKkMgBXMqAlp-11" style="edgeStyle=none;rounded=0;orthogonalLoop=1;jettySize=auto;html=1;exitX=1;exitY=0.5;exitDx=0;exitDy=0;exitPerimeter=0;entryX=0;entryY=0.5;entryDx=0;entryDy=0;fillColor=#f8cecc;strokeColor=#b85450;endArrow=none;endFill=0;" parent="1" source="yeMwg9czrKkMgBXMqAlp-8" target="yeMwg9czrKkMgBXMqAlp-1" edge="1">
          <mxGeometry relative="1" as="geometry" />
        </mxCell>
        <mxCell id="yeMwg9czrKkMgBXMqAlp-8" value="IP: &lt;b&gt;&lt;font color=&quot;#ff0000&quot;&gt;NET1_PC1&lt;/font&gt;&lt;/b&gt;" style="verticalLabelPosition=bottom;html=1;verticalAlign=top;align=center;strokeColor=#b85450;fillColor=#f8cecc;shape=mxgraph.azure.computer;pointerEvents=1;" parent="1" vertex="1">
          <mxGeometry x="80" y="97.5" width="50" height="45" as="geometry" />
        </mxCell>
        <mxCell id="yeMwg9czrKkMgBXMqAlp-10" style="rounded=0;orthogonalLoop=1;jettySize=auto;html=1;exitX=1;exitY=0.5;exitDx=0;exitDy=0;exitPerimeter=0;fillColor=#d5e8d4;strokeColor=#82b366;endArrow=none;endFill=0;" parent="1" source="yeMwg9czrKkMgBXMqAlp-9" target="yeMwg9czrKkMgBXMqAlp-2" edge="1">
          <mxGeometry relative="1" as="geometry" />
        </mxCell>
        <mxCell id="yeMwg9czrKkMgBXMqAlp-9" value="IP: &lt;b&gt;&lt;font color=&quot;#ff0000&quot;&gt;NET2_PC2&lt;/font&gt;&lt;/b&gt;" style="verticalLabelPosition=bottom;html=1;verticalAlign=top;align=center;strokeColor=#82b366;fillColor=#d5e8d4;shape=mxgraph.azure.computer;pointerEvents=1;" parent="1" vertex="1">
          <mxGeometry x="80" y="298.5" width="50" height="45" as="geometry" />
        </mxCell>
        <mxCell id="yeMwg9czrKkMgBXMqAlp-15" value="Подключение к консоли&lt;br&gt;по протоколу TELNET &lt;br&gt;Адрес 10.40.68.3 &lt;br&gt;Порт - на наклейке (20&lt;font color=&quot;#ff0000&quot;&gt;XY)&lt;/font&gt;" style="text;html=1;strokeColor=#36393d;fillColor=#eeeeee;align=left;verticalAlign=middle;whiteSpace=wrap;rounded=0;fontStyle=1;fontSize=23;" parent="1" vertex="1">
          <mxGeometry x="160" y="161" width="320" height="120" as="geometry" />
        </mxCell>
        <mxCell id="yeMwg9czrKkMgBXMqAlp-16" value="ENABLE: class&lt;br&gt;LOGIN: cisco&lt;br style=&quot;font-size: 22px;&quot;&gt;&lt;div style=&quot;&quot;&gt;&lt;span style=&quot;background-color: initial;&quot;&gt;PASS: cisco&lt;/span&gt;&lt;/div&gt;" style="text;html=1;strokeColor=#36393d;fillColor=#eeeeee;align=left;verticalAlign=middle;whiteSpace=wrap;rounded=0;fontSize=22;fontStyle=1" parent="1" vertex="1">
          <mxGeometry x="627" width="200" height="100" as="geometry" />
        </mxCell>
        <mxCell id="yeMwg9czrKkMgBXMqAlp-18" value="11. Настроить маршруты" style="text;html=1;strokeColor=#d79b00;fillColor=#ffe6cc;align=left;verticalAlign=top;whiteSpace=wrap;rounded=0;" parent="1" vertex="1">
          <mxGeometry x="40" y="645" width="360" height="25" as="geometry" />
        </mxCell>
        <mxCell id="yeMwg9czrKkMgBXMqAlp-19" value="11. Настроить шлюз" style="text;html=1;strokeColor=#82b366;fillColor=#d5e8d4;align=left;verticalAlign=top;whiteSpace=wrap;rounded=0;" parent="1" vertex="1">
          <mxGeometry x="400" y="645" width="320" height="25" as="geometry" />
        </mxCell>
        <mxCell id="yeMwg9czrKkMgBXMqAlp-20" value="&lt;span style=&quot;font-family: Helvetica; font-size: 12px; font-style: normal; font-variant-ligatures: normal; font-variant-caps: normal; font-weight: 400; letter-spacing: normal; orphans: 2; text-align: center; text-indent: 0px; text-transform: none; widows: 2; word-spacing: 0px; -webkit-text-stroke-width: 0px; text-decoration-thickness: initial; text-decoration-style: initial; text-decoration-color: initial; float: none; display: inline !important;&quot;&gt;Fa0/&lt;/span&gt;&lt;span style=&quot;font-family: Helvetica; font-size: 12px; font-style: normal; font-variant-ligatures: normal; font-variant-caps: normal; letter-spacing: normal; orphans: 2; text-align: center; text-indent: 0px; text-transform: none; widows: 2; word-spacing: 0px; -webkit-text-stroke-width: 0px; text-decoration-thickness: initial; text-decoration-style: initial; text-decoration-color: initial; float: none; display: inline !important;&quot;&gt;&lt;b style=&quot;&quot;&gt;&lt;font color=&quot;#ff0000&quot;&gt;X&lt;/font&gt;&lt;/b&gt;&lt;br&gt;IPv4: &lt;b&gt;&lt;font color=&quot;#ff0000&quot;&gt;NET1_R1&lt;/font&gt;&lt;/b&gt;&lt;br&gt;IPv6: &lt;b&gt;&lt;font color=&quot;#ff0000&quot;&gt;NET1_R1&lt;/font&gt;&lt;/b&gt;&lt;br&gt;&lt;/span&gt;" style="text;whiteSpace=wrap;html=1;fillColor=#eeeeee;strokeColor=#36393d;labelBackgroundColor=none;" parent="1" vertex="1">
          <mxGeometry x="390" y="60" width="90" height="50" as="geometry" />
        </mxCell>
        <mxCell id="yeMwg9czrKkMgBXMqAlp-21" value="&lt;span style=&quot;color: rgb(0, 0, 0); font-family: Helvetica; font-size: 12px; font-style: normal; font-variant-ligatures: normal; font-variant-caps: normal; font-weight: 400; letter-spacing: normal; orphans: 2; text-align: center; text-indent: 0px; text-transform: none; widows: 2; word-spacing: 0px; -webkit-text-stroke-width: 0px; text-decoration-thickness: initial; text-decoration-style: initial; text-decoration-color: initial; float: none; display: inline !important;&quot;&gt;Fa0/&lt;/span&gt;&lt;span style=&quot;font-family: Helvetica; font-size: 12px; font-style: normal; font-variant-ligatures: normal; font-variant-caps: normal; letter-spacing: normal; orphans: 2; text-align: center; text-indent: 0px; text-transform: none; widows: 2; word-spacing: 0px; -webkit-text-stroke-width: 0px; text-decoration-thickness: initial; text-decoration-style: initial; text-decoration-color: initial; float: none; display: inline !important;&quot;&gt;&lt;font color=&quot;#ff0000&quot;&gt;&lt;b&gt;Y&lt;/b&gt;&lt;/font&gt;&lt;/span&gt;&lt;span style=&quot;color: rgb(0, 0, 0); font-family: Helvetica; font-size: 12px; font-style: normal; font-variant-ligatures: normal; font-variant-caps: normal; font-weight: 400; letter-spacing: normal; orphans: 2; text-align: center; text-indent: 0px; text-transform: none; widows: 2; word-spacing: 0px; -webkit-text-stroke-width: 0px; text-decoration-thickness: initial; text-decoration-style: initial; text-decoration-color: initial; float: none; display: inline !important;&quot;&gt;:&amp;nbsp;&lt;br&gt;&lt;/span&gt;IPv4: &lt;font color=&quot;#ff0000&quot;&gt;&lt;b&gt;NET1_R1&lt;/b&gt;&lt;/font&gt;&lt;br style=&quot;border-color: var(--border-color); text-align: center;&quot;&gt;&lt;span style=&quot;text-align: center;&quot;&gt;IPv6: &lt;b&gt;&lt;font color=&quot;#ff0000&quot;&gt;NET1_R1&lt;/font&gt;&lt;/b&gt;&lt;/span&gt;" style="text;html=1;labelBackgroundColor=none;fillColor=#eeeeee;strokeColor=#36393d;" parent="1" vertex="1">
          <mxGeometry x="560" y="120" width="90" height="50" as="geometry" />
        </mxCell>
        <mxCell id="yeMwg9czrKkMgBXMqAlp-24" value="PC:&lt;br&gt;1. Настроить IP, MASK, GATEWAY&lt;br&gt;2. Подключиться по SSH к своим SW, R" style="text;html=1;strokeColor=#6c8ebf;fillColor=#dae8fc;align=left;verticalAlign=top;whiteSpace=wrap;rounded=0;" parent="1" vertex="1">
          <mxGeometry x="40" y="720" width="680" height="50" as="geometry" />
        </mxCell>
        <mxCell id="yeMwg9czrKkMgBXMqAlp-25" value="Итоговая проверка IPv4:&amp;nbsp;&lt;br&gt;1. Пинг PC -&amp;gt; SW (свой)&lt;br&gt;2. Пинг PC -&amp;gt; R (свой) внутренний и внешний интерфейсы&lt;br&gt;3. Пинг PC -&amp;gt; R (чужой) внутренний и внешний интерфейсы&lt;br&gt;4.&amp;nbsp;Пинг PC -&amp;gt; SW (чужой)&lt;br&gt;5.&amp;nbsp;&amp;nbsp;Пинг PC -&amp;gt; PC (чужой)" style="text;html=1;strokeColor=#b85450;fillColor=#f8cecc;align=left;verticalAlign=middle;whiteSpace=wrap;rounded=0;" parent="1" vertex="1">
          <mxGeometry x="40" y="770" width="680" height="100" as="geometry" />
        </mxCell>
        <mxCell id="gWeFS0ZomYIFVllKic4I-1" value="Router:&lt;br&gt;1. Назначить имя устройства&lt;br&gt;2. Отключить поиск DNS&lt;br&gt;3. Enable: class&lt;br&gt;4. На консоли логин и пароль: cisco&lt;br&gt;5. Включить шифрование паролей (бред!)&lt;br&gt;6. Баннер с предупреждением&lt;br&gt;7. Настроить IPv4 интерфейсы (IP, MASK), указать описание&lt;br&gt;8. Настроить SSH&lt;br&gt;9. Проверить состояние интерфейсов -&amp;nbsp;Fa0/0, Fa0/1&lt;br&gt;10. Посмотреть соседей по CDP, должны быть видны &lt;br&gt;SW из своей сети и R из соседней" style="text;html=1;strokeColor=#d79b00;fillColor=#ffe6cc;align=left;verticalAlign=top;whiteSpace=wrap;rounded=0;" vertex="1" parent="1">
          <mxGeometry x="40" y="380" width="360" height="190" as="geometry" />
        </mxCell>
        <mxCell id="gWeFS0ZomYIFVllKic4I-2" value="Switch:&lt;br style=&quot;border-color: var(--border-color);&quot;&gt;1. Назначить имя устройства&lt;br style=&quot;border-color: var(--border-color);&quot;&gt;2. Отключить поиск DNS&lt;br style=&quot;border-color: var(--border-color);&quot;&gt;3. Enable: class&lt;br style=&quot;border-color: var(--border-color);&quot;&gt;4. На консоли логин и пароль: cisco&lt;br style=&quot;border-color: var(--border-color);&quot;&gt;5. Включить шифрование паролей (бред!)&lt;br style=&quot;border-color: var(--border-color);&quot;&gt;6. Баннер с предупреждением&lt;br style=&quot;border-color: var(--border-color);&quot;&gt;7. Настроить интерфейсы (IP, MASK), указать описание&lt;br style=&quot;border-color: var(--border-color);&quot;&gt;8. Настроить SSH&lt;br&gt;9. Проверить состояние интерфейсов - VLAN 1&lt;br&gt;10. Посмотреть соседей по CDP, должен быть виден R&amp;nbsp;из своей сети" style="text;html=1;strokeColor=#82b366;fillColor=#d5e8d4;align=left;verticalAlign=top;whiteSpace=wrap;rounded=0;" vertex="1" parent="1">
          <mxGeometry x="400" y="380" width="320" height="190" as="geometry" />
        </mxCell>
        <mxCell id="gWeFS0ZomYIFVllKic4I-3" value="Проверка:&lt;br&gt;1. Посмотреть соседей по CDP на R, если все интерфейсы уже настроены, то будут доступны SW и соседний R&lt;br&gt;2. Проверить пинг между SW&amp;nbsp;и&amp;nbsp;R в своей сети&lt;br&gt;3. Проверить пинг с R1 до R2 между адресами NET3_R1, NET3_R2 (подставить реальные адреса)&lt;br&gt;4. Попробовать с SW подключиться по SSH на R (подставить реальный адрес): ssh -l cisco NET1_R1" style="text;html=1;strokeColor=#b85450;fillColor=#f8cecc;align=left;verticalAlign=middle;whiteSpace=wrap;rounded=0;" vertex="1" parent="1">
          <mxGeometry x="40" y="565" width="680" height="80" as="geometry" />
        </mxCell>
        <mxCell id="gWeFS0ZomYIFVllKic4I-4" value="Проверка:&amp;nbsp;&lt;br&gt;1. Пинг SW -&amp;gt; R (свой) внутренний и внешний интерфейсы&lt;br&gt;2. Пинг SW -&amp;gt; R (чужой) внутренний и внешний интерфейсы" style="text;html=1;strokeColor=#b85450;fillColor=#f8cecc;align=left;verticalAlign=top;whiteSpace=wrap;rounded=0;" vertex="1" parent="1">
          <mxGeometry x="40" y="670" width="680" height="50" as="geometry" />
        </mxCell>
        <mxCell id="gWeFS0ZomYIFVllKic4I-5" value="&lt;span style=&quot;color: rgb(0, 0, 0); font-family: Helvetica; font-size: 12px; font-style: normal; font-variant-ligatures: normal; font-variant-caps: normal; font-weight: 400; letter-spacing: normal; orphans: 2; text-align: center; text-indent: 0px; text-transform: none; widows: 2; word-spacing: 0px; -webkit-text-stroke-width: 0px; text-decoration-thickness: initial; text-decoration-style: initial; text-decoration-color: initial; float: none; display: inline !important;&quot;&gt;Fa0/&lt;/span&gt;&lt;span style=&quot;font-family: Helvetica; font-size: 12px; font-style: normal; font-variant-ligatures: normal; font-variant-caps: normal; letter-spacing: normal; orphans: 2; text-align: center; text-indent: 0px; text-transform: none; widows: 2; word-spacing: 0px; -webkit-text-stroke-width: 0px; text-decoration-thickness: initial; text-decoration-style: initial; text-decoration-color: initial; float: none; display: inline !important;&quot;&gt;&lt;font color=&quot;#ff0000&quot;&gt;&lt;b&gt;Y&lt;/b&gt;&lt;/font&gt;&lt;/span&gt;&lt;span style=&quot;color: rgb(0, 0, 0); font-family: Helvetica; font-size: 12px; font-style: normal; font-variant-ligatures: normal; font-variant-caps: normal; font-weight: 400; letter-spacing: normal; orphans: 2; text-align: center; text-indent: 0px; text-transform: none; widows: 2; word-spacing: 0px; -webkit-text-stroke-width: 0px; text-decoration-thickness: initial; text-decoration-style: initial; text-decoration-color: initial; float: none; display: inline !important;&quot;&gt;:&amp;nbsp;&lt;br&gt;&lt;/span&gt;IPv4: &lt;font color=&quot;#ff0000&quot;&gt;&lt;b&gt;NET3_R2&lt;/b&gt;&lt;/font&gt;&lt;br style=&quot;border-color: var(--border-color); text-align: center;&quot;&gt;&lt;span style=&quot;text-align: center;&quot;&gt;IPv6: &lt;b&gt;&lt;font color=&quot;#ff0000&quot;&gt;NET3_R2&lt;/font&gt;&lt;/b&gt;&lt;/span&gt;" style="text;html=1;labelBackgroundColor=none;fillColor=#eeeeee;strokeColor=#36393d;" vertex="1" parent="1">
          <mxGeometry x="560" y="270" width="90" height="50" as="geometry" />
        </mxCell>
        <mxCell id="gWeFS0ZomYIFVllKic4I-6" value="&lt;span style=&quot;font-family: Helvetica; font-size: 12px; font-style: normal; font-variant-ligatures: normal; font-variant-caps: normal; font-weight: 400; letter-spacing: normal; orphans: 2; text-align: center; text-indent: 0px; text-transform: none; widows: 2; word-spacing: 0px; -webkit-text-stroke-width: 0px; text-decoration-thickness: initial; text-decoration-style: initial; text-decoration-color: initial; float: none; display: inline !important;&quot;&gt;Fa0/&lt;/span&gt;&lt;span style=&quot;font-family: Helvetica; font-size: 12px; font-style: normal; font-variant-ligatures: normal; font-variant-caps: normal; letter-spacing: normal; orphans: 2; text-align: center; text-indent: 0px; text-transform: none; widows: 2; word-spacing: 0px; -webkit-text-stroke-width: 0px; text-decoration-thickness: initial; text-decoration-style: initial; text-decoration-color: initial; float: none; display: inline !important;&quot;&gt;&lt;b style=&quot;&quot;&gt;&lt;font color=&quot;#ff0000&quot;&gt;X&lt;/font&gt;&lt;/b&gt;&lt;br&gt;IPv4: &lt;b&gt;&lt;font color=&quot;#ff0000&quot;&gt;NET2_R2&lt;/font&gt;&lt;/b&gt;&lt;br&gt;IPv6: &lt;b&gt;&lt;font color=&quot;#ff0000&quot;&gt;NET2_R2&lt;/font&gt;&lt;/b&gt;&lt;br&gt;&lt;/span&gt;" style="text;whiteSpace=wrap;html=1;fillColor=#eeeeee;strokeColor=#36393d;labelBackgroundColor=none;" vertex="1" parent="1">
          <mxGeometry x="390" y="330" width="90" height="50" as="geometry" />
        </mxCell>
        <mxCell id="gWeFS0ZomYIFVllKic4I-8" value="12. Настроить IPv6 адреса и маршруты" style="text;html=1;strokeColor=#d79b00;fillColor=#ffe6cc;align=left;verticalAlign=top;whiteSpace=wrap;rounded=0;" vertex="1" parent="1">
          <mxGeometry x="40" y="870" width="360" height="25" as="geometry" />
        </mxCell>
        <mxCell id="gWeFS0ZomYIFVllKic4I-9" value="12. Настроить IPv6 адреса и маршруты" style="text;html=1;strokeColor=#82b366;fillColor=#d5e8d4;align=left;verticalAlign=top;whiteSpace=wrap;rounded=0;" vertex="1" parent="1">
          <mxGeometry x="400" y="870" width="320" height="25" as="geometry" />
        </mxCell>
        <mxCell id="gWeFS0ZomYIFVllKic4I-10" value="Итоговая проверка IPv6:&amp;nbsp;&lt;br&gt;1. Пинг PC -&amp;gt; SW (свой)&lt;br&gt;2. Пинг PC -&amp;gt; R (свой) внутренний и внешний интерфейсы&lt;br&gt;3. Пинг PC -&amp;gt; R (чужой) внутренний и внешний интерфейсы&lt;br&gt;4.&amp;nbsp;Пинг PC -&amp;gt; SW (чужой)&lt;br&gt;5.&amp;nbsp;&amp;nbsp;Пинг PC -&amp;gt; PC (чужой)" style="text;html=1;strokeColor=#b85450;fillColor=#f8cecc;align=left;verticalAlign=middle;whiteSpace=wrap;rounded=0;" vertex="1" parent="1">
          <mxGeometry x="40" y="895" width="680" height="100" as="geometry" />
        </mxCell>
        <mxCell id="gWeFS0ZomYIFVllKic4I-11" value="Рекомендация&amp;nbsp; - отредактировать &lt;b&gt;&lt;font color=&quot;#ff0000&quot;&gt;выделенный красным текст&lt;/font&gt;&lt;/b&gt; &lt;br&gt;в соответствии со своими настройками и сохранить в новый файл" style="text;html=1;strokeColor=none;fillColor=none;align=center;verticalAlign=middle;whiteSpace=wrap;rounded=0;" vertex="1" parent="1">
          <mxGeometry width="400" height="30" as="geometry" />
        </mxCell>
      </root>
    </mxGraphModel>
  </diagram>
</mxfile>
